<svg xmlns="http://www.w3.org/2000/svg" xmlns:xlink="http://www.w3.org/1999/xlink" width="500" zoomAndPan="magnify" viewBox="0 0 375 374.999991" height="500" preserveAspectRatio="xMidYMid meet" version="1.2"><defs><clipPath id="59a6b9f9b1"><path d="M 71.300781 85 L 303.800781 85 L 303.800781 290 L 71.300781 290 Z M 71.300781 85 "/></clipPath></defs><g id="3f580dbed4"><rect x="0" width="375" y="0" height="374.999991" style="fill:#ffffff;fill-opacity:1;stroke:none;"/><rect x="0" width="375" y="0" height="374.999991" style="fill:#4f46e5;fill-opacity:1;stroke:none;"/><g clip-rule="nonzero" clip-path="url(#59a6b9f9b1)"><path style=" stroke:none;fill-rule:nonzero;fill:#ffffff;fill-opacity:1;" d="M 100.363281 85.832031 C 84.332031 85.832031 71.300781 98.863281 71.300781 114.894531 L 71.300781 260.207031 C 71.300781 276.234375 84.332031 289.269531 100.363281 289.269531 L 274.738281 289.269531 C 290.765625 289.269531 303.800781 276.234375 303.800781 260.207031 L 303.800781 158.488281 C 303.800781 142.457031 290.765625 129.425781 274.738281 129.425781 L 107.628906 129.425781 C 103.632812 129.425781 100.363281 126.15625 100.363281 122.160156 C 100.363281 118.164062 103.632812 114.894531 107.628906 114.894531 L 274.738281 114.894531 C 282.773438 114.894531 289.269531 108.398438 289.269531 100.363281 C 289.269531 92.324219 282.773438 85.832031 274.738281 85.832031 Z M 260.207031 194.816406 C 261.160156 194.816406 262.105469 194.910156 263.042969 195.09375 C 263.976562 195.28125 264.886719 195.558594 265.765625 195.921875 C 266.648438 196.285156 267.484375 196.734375 268.28125 197.265625 C 269.074219 197.792969 269.808594 198.398438 270.480469 199.070312 C 271.15625 199.746094 271.757812 200.480469 272.289062 201.273438 C 272.820312 202.066406 273.265625 202.90625 273.632812 203.785156 C 273.996094 204.667969 274.273438 205.578125 274.457031 206.511719 C 274.644531 207.449219 274.738281 208.394531 274.738281 209.347656 C 274.738281 210.300781 274.644531 211.246094 274.457031 212.183594 C 274.273438 213.117188 273.996094 214.027344 273.632812 214.90625 C 273.265625 215.789062 272.820312 216.625 272.289062 217.421875 C 271.757812 218.214844 271.15625 218.949219 270.480469 219.621094 C 269.808594 220.296875 269.074219 220.898438 268.28125 221.429688 C 267.484375 221.960938 266.648438 222.40625 265.765625 222.773438 C 264.886719 223.136719 263.976562 223.414062 263.042969 223.597656 C 262.105469 223.785156 261.160156 223.878906 260.207031 223.878906 C 259.253906 223.878906 258.308594 223.785156 257.371094 223.597656 C 256.4375 223.414062 255.527344 223.136719 254.644531 222.773438 C 253.765625 222.40625 252.925781 221.960938 252.132812 221.429688 C 251.339844 220.898438 250.605469 220.296875 249.929688 219.621094 C 249.257812 218.949219 248.652344 218.214844 248.125 217.421875 C 247.59375 216.625 247.144531 215.789062 246.78125 214.90625 C 246.417969 214.027344 246.140625 213.117188 245.953125 212.183594 C 245.769531 211.246094 245.675781 210.300781 245.675781 209.347656 C 245.675781 208.394531 245.769531 207.449219 245.953125 206.511719 C 246.140625 205.578125 246.417969 204.667969 246.78125 203.785156 C 247.144531 202.90625 247.59375 202.066406 248.125 201.273438 C 248.652344 200.480469 249.257812 199.746094 249.929688 199.070312 C 250.605469 198.398438 251.339844 197.792969 252.132812 197.265625 C 252.925781 196.734375 253.765625 196.285156 254.644531 195.921875 C 255.527344 195.558594 256.4375 195.28125 257.371094 195.09375 C 258.308594 194.910156 259.253906 194.816406 260.207031 194.816406 Z M 260.207031 194.816406 "/></g></g></svg>